# xmcd
#
# Track frame offsets:
#	150
#	13022
#	23350
#	39888
#	55261
#	68259
#	76444
#	90832
#	100262
#	111412
#	128125
#	140845
#
# Disc length: 2040 seconds
#
# Revision: 0
# Processed by: cddbd v1.5.2PL0 Copyright (c) Steve Scherf et al.
# Submitted via: EasyCDDAExtractor 10.0.6.1
#
DISCID=8b07f60c
DTITLE=The Barker Brothers - Dlooar Daze
DYEAR=2004
DGENRE=Bluegrass
TTITLE0=John Hardy
TTITLE1=The Dollar Store
TTITLE2=Pickin' and Tunin'
TTITLE3=Deep, Dark Grave
TTITLE4=Dueling Brothers
TTITLE5=Rawhide
TTITLE6=Tennessee Mountain Top
TTITLE7=The Man In The Middle
TTITLE8=This Heart Of Mine
TTITLE9=Wayfaring Pilgram
TTITLE10=Hammer Song
TTITLE11=Wagon On The Barn
EXTD=
EXTT0=
EXTT1=
EXTT2=
EXTT3=
EXTT4=
EXTT5=
EXTT6=
EXTT7=
EXTT8=
EXTT9=
EXTT10=
EXTT11=
PLAYORDER=
